<?xml version="1.0" encoding="UTF-8" standalone="no"?>
<svg
   xmlns:dc="http://purl.org/dc/elements/1.1/"
   xmlns:cc="http://creativecommons.org/ns#"
   xmlns:rdf="http://www.w3.org/1999/02/22-rdf-syntax-ns#"
   xmlns:svg="http://www.w3.org/2000/svg"
   xmlns="http://www.w3.org/2000/svg"
   xmlns:sodipodi="http://sodipodi.sourceforge.net/DTD/sodipodi-0.dtd"
   xmlns:inkscape="http://www.inkscape.org/namespaces/inkscape"
   inkscape:version="1.0 (4035a4fb49, 2020-05-01)"
   sodipodi:docname="maximize-hover_new.svg"
   version="1.1"
   viewBox="0 0 16 16"
   id="svg1278"
   width="16"
   height="16">
  <sodipodi:namedview
     inkscape:current-layer="g1154"
     inkscape:window-maximized="1"
     inkscape:window-y="26"
     inkscape:window-x="0"
     inkscape:cy="8"
     inkscape:cx="8"
     inkscape:zoom="53.4375"
     showgrid="false"
     id="namedview10"
     inkscape:window-height="1054"
     inkscape:window-width="1920"
     inkscape:pageshadow="2"
     inkscape:pageopacity="0"
     guidetolerance="10"
     gridtolerance="10"
     objecttolerance="10"
     borderopacity="1"
     bordercolor="#666666"
     pagecolor="#ffffff" />
  <metadata
     id="metadata1284">
    <rdf:RDF>
      <cc:Work
         rdf:about="">
        <dc:format>image/svg+xml</dc:format>
        <dc:type
           rdf:resource="http://purl.org/dc/dcmitype/StillImage" />
        <dc:title></dc:title>
      </cc:Work>
    </rdf:RDF>
  </metadata>
  <defs
     id="defs1282" />
  <g
     id="titlebutton-maximize-hover-darkest"
     transform="translate(-513,185.64)">
    <g
       transform="translate(-781,-432.64)"
       id="g1154">
      <path
         inkscape:export-ydpi="96"
         inkscape:export-xdpi="96"
         inkscape:export-filename="/home/amnesica/Dokumente/Theming/Blau/titlebutton-maximize-hover-darkest@2.png"
         transform="translate(908,156)"
         d="m 394,92 c -3.866,0 -7,3.134 -7,7 0,3.866 3.134,7 7,7 3.866,0 7,-3.134 7,-7 0,-3.866 -3.134,-7 -7,-7 z"
         style="fill:#06a284;stroke:#0e53ca;stroke-width:0.5;fill-opacity:1"
         id="path1152" />
    </g>
    <rect
       x="513"
       y="-185.64"
       width="16"
       height="16"
       style="fill:none"
       id="rect1156" />
    <path
       d="m 519.8,-180.64 h 3.3817 c 0.4503,0 0.81623,0.36847 0.81876,0.8188 v 3.3817 z m 2.4074,6.0069 h -3.3951 c -0.45035,0 -0.81876,-0.36842 -0.81876,-0.81875 v -3.3951 l 4.2138,4.2138"
       style="opacity:0.5;fill-rule:evenodd"
       id="path1158" />
    <path
       transform="translate(513,-185.64)"
       id="path837"
       d="m 8.9076023,7.0921722 -2.0771929,-2.077485 1.7777777,0.00494 1.7777779,0.00494 0.127282,0.060288 c 0.238745,0.1130827 0.41237,0.3369523 0.461214,0.5946833 0.01518,0.080077 0.01971,0.5966929 0.01581,1.8012027 l -0.0055,1.6889222 z"
       style="fill:#024236;fill-opacity:1;stroke-width:0" />
    <path
       transform="translate(513,-185.64)"
       id="path839"
       d="M 5.6641178,10.983485 C 5.5607595,10.963145 5.4002318,10.889726 5.3115037,10.822212 5.203881,10.740322 5.0849101,10.564757 5.0428843,10.425811 5.0063298,10.304954 5.0054889,10.256984 5.0102833,8.5660489 l 0.00492,-1.7357055 2.0865182,2.0865827 2.0865183,2.0865829 -1.721606,-0.0021 c -0.9468833,-0.0011 -1.7580161,-0.0092 -1.8025174,-0.01797 z"
       style="fill:#024236;fill-opacity:1;stroke-width:0" />
    <path
       transform="translate(513,-185.64)"
       id="path841"
       d="M 7.4292398,15.221228 C 7.1861309,15.197147 6.8416924,15.150149 6.671345,15.117814 3.6182933,14.53829 1.2767417,12.09573 0.83455575,9.0292398 0.43911175,6.2868976 1.6489624,3.5572319 3.948538,2.0034712 4.8987645,1.3614289 5.9201389,0.97575755 7.1017544,0.81281539 7.3938438,0.77253689 8.2729546,0.7558482 8.600393,0.78436581 c 0.8914661,0.0776405 1.724384,0.30386709 2.515396,0.68320029 2.924735,1.4025676 4.557981,4.5451364 4.02186,7.7385575 -0.388411,2.3135804 -1.890785,4.3046914 -4.017994,5.3250834 -0.69585,0.33379 -1.4003702,0.541927 -2.2214094,0.656273 -0.2051161,0.02857 -1.2735205,0.05311 -1.4690058,0.03375 z M 8.7298246,14.717053 C 10.721263,14.502549 12.509813,13.416132 13.626465,11.74269 14.147257,10.962219 14.507172,10.056342 14.65994,9.1415205 14.733198,8.7028317 14.746199,8.5307784 14.746199,8 c 0,-0.5307784 -0.013,-0.7028317 -0.08626,-1.1415205 C 14.195468,4.0770781 11.988181,1.8483457 9.2035591,1.3490864 8.4352432,1.2113338 7.5665617,1.2112954 6.7964409,1.3489799 4.7128275,1.7214948 2.9100602,3.073661 1.9538609,4.9811584 1.3357358,6.2142404 1.1134175,7.6328442 1.3204475,9.0229431 c 0.3368024,2.2614529 1.8422379,4.2287049 3.9473888,5.1583149 0.7579684,0.33471 1.5492785,0.520209 2.4421052,0.572478 0.1978321,0.01158 0.7592758,-0.0086 1.0198831,-0.03668 z"
       style="fill:#024236;fill-opacity:1;stroke-width:0" />
  </g>
</svg>
