<?xml version="1.0" encoding="UTF-8" standalone="no"?>
<svg
   xmlns:dc="http://purl.org/dc/elements/1.1/"
   xmlns:cc="http://creativecommons.org/ns#"
   xmlns:rdf="http://www.w3.org/1999/02/22-rdf-syntax-ns#"
   xmlns:svg="http://www.w3.org/2000/svg"
   xmlns="http://www.w3.org/2000/svg"
   xmlns:sodipodi="http://sodipodi.sourceforge.net/DTD/sodipodi-0.dtd"
   xmlns:inkscape="http://www.inkscape.org/namespaces/inkscape"
   height="16"
   width="16"
   id="svg1278"
   viewBox="0 0 16 16"
   version="1.1"
   sodipodi:docname="maximize_new.svg"
   inkscape:version="1.0 (4035a4fb49, 2020-05-01)"
   inkscape:export-filename="/home/amnesica/Dokumente/Theming/Blau/titlebutton-maximize-darkest@2.png"
   inkscape:export-xdpi="180"
   inkscape:export-ydpi="180">
  <sodipodi:namedview
     inkscape:document-rotation="0"
     pagecolor="#ffffff"
     bordercolor="#666666"
     borderopacity="1"
     objecttolerance="10"
     gridtolerance="10"
     guidetolerance="10"
     inkscape:pageopacity="0"
     inkscape:pageshadow="2"
     inkscape:window-width="1920"
     inkscape:window-height="1054"
     id="namedview8"
     showgrid="false"
     inkscape:zoom="45.254834"
     inkscape:cx="5.3391128"
     inkscape:cy="7.8588563"
     inkscape:window-x="0"
     inkscape:window-y="26"
     inkscape:window-maximized="1"
     inkscape:current-layer="titlebutton-maximize-darkest" />
  <metadata
     id="metadata1284">
    <rdf:RDF>
      <cc:Work
         rdf:about="">
        <dc:format>image/svg+xml</dc:format>
        <dc:type
           rdf:resource="http://purl.org/dc/dcmitype/StillImage" />
        <dc:title />
      </cc:Work>
    </rdf:RDF>
  </metadata>
  <defs
     id="defs1282" />
  <g
     transform="translate(-616,185.64)"
     id="titlebutton-maximize-darkest"
     style="stroke:none;stroke-opacity:1">
    <rect
       id="rect1134"
       style="fill:none;stroke:none;stroke-opacity:1"
       height="16"
       width="16"
       y="-185.64"
       x="616" />
    <path
       id="path1136"
       style="fill:#024236;stroke:none;stroke-width:0.5;stroke-opacity:1;fill-opacity:1"
       d="m 624,-184.63 c -3.866,0 -7,3.134 -7,7 0,3.866 3.134,7 7,7 3.866,0 7,-3.134 7,-7 0,-3.866 -3.134,-7 -7,-7 z"
       inkscape:export-filename="/home/amnesica/Dokumente/Theming/Blau/titlebutton-maximize-darkest@2.png"
       inkscape:export-xdpi="96"
       inkscape:export-ydpi="96" />
  </g>
  <path
     style="fill:#06a284;stroke-width:0;fill-opacity:1;stroke-miterlimit:4;stroke-dasharray:none;stroke:none"
     d="M 7.4853801,14.734681 C 7.2091404,14.707307 6.8905505,14.662565 6.6900585,14.622987 4.8241972,14.254658 3.2010884,13.109817 2.2130572,11.465184 1.6825748,10.582166 1.3675483,9.5952891 1.280152,8.5426901 1.2524868,8.2094905 1.2682114,7.4795833 1.3097835,7.1672515 1.5124158,5.6448717 2.1685675,4.3130886 3.246097,3.2371393 4.2616657,2.2230598 5.5455246,1.572001 6.9707602,1.348322 7.6633433,1.2396268 8.472608,1.2493581 9.1959074,1.3750792 10.521953,1.6055674 11.78557,2.2682791 12.763324,3.246033 c 1.142781,1.1427814 1.826117,2.620795 1.956176,4.2310889 0.04369,0.5409373 0.0056,1.2463786 -0.09703,1.7953927 -0.313408,1.6771704 -1.293347,3.2082934 -2.698666,4.2165824 -0.911879,0.654256 -1.9367841,1.057132 -3.0817027,1.211374 -0.2223149,0.02995 -1.1608874,0.05362 -1.3567252,0.03421 z"
     id="path10" />
</svg>
